# xmcd
#
# Track frame offsets:
#	150
#	16525
#	31388
#	46374
#	62318
#	76246
#	90825
#	106924
#	122304
#	134316
#	155529
#	169101
#	188985
#	205296
#	222316
#	238137
#	251832
#	265841
#	281613
#	298647
#	315101
#	331949
#
# Disc length: 4664 seconds
#
# Revision: 1
# Processed by: cddbd v1.5.1PL0 Copyright (c) Steve Scherf et al.
# Submitted via: audiograbber 1.83.01
#
DISCID=24123616
DTITLE=Various Artist - Nescafe подарочный 50/50. Vol 15.
DYEAR=1900
DGENRE=
TTITLE0=Сочи. - Лето-это миг.
TTITLE1=Dj Lhasa. - Giulia.
TTITLE2=Комиссар. - Ангел.
TTITLE3=Midory. - My Light.
TTITLE4=Валерия. - Часики.
TTITLE5=Ladykillaz. - Jeanny.
TTITLE6=Русский размер. - Обними меня.
TTITLE7=In-Grid. - In-Tango.
TTITLE8=Витас. - Улицы столицы.
TTITLE9=Eminem. - Bump Heads.
TTITLE10=Гости из будущего. - Девушка которая поет.
TTITLE11=Madonna. - Hollywood.
TTITLE12=Андрей Губин. - Я и ты.
TTITLE13=Jeanette. - It's Over Now.
TTITLE14=Акула. - Вчера.
TTITLE15=Dj Bobo. - Chihuahua.
TTITLE16=Рената. - Ты попала.
TTITLE17=French Affair. - Comme Ci Comme Ca.
TTITLE18=Фабрика. - Море зовет.
TTITLE19=Ricky Martin. - Jalio.
TTITLE20=Глюкоза. - Снег.
TTITLE21=Alizee. - I'm Fade Up.
EXTD=
EXTT0=
EXTT1=
EXTT2=
EXTT3=
EXTT4=
EXTT5=
EXTT6=
EXTT7=
EXTT8=
EXTT9=
EXTT10=
EXTT11=
EXTT12=
EXTT13=
EXTT14=
EXTT15=
EXTT16=
EXTT17=
EXTT18=
EXTT19=
EXTT20=
EXTT21=
PLAYORDER=
